<svg xmlns="http://www.w3.org/2000/svg" viewBox="0 0 750 500"><g id="freepik--background-complete--inject-16"><rect x="79.34" y="165.23" width="153.32" height="103.32" style="fill:#fff"></rect><path d="M233.15,269.05H78.84V164.73H233.15Zm-153.31-1H232.15V165.73H79.84Z" style="fill:#ebebeb"></path><path d="M94.15,173.05a3.53,3.53,0,1,1-3.53-3.53A3.53,3.53,0,0,1,94.15,173.05Z" style="fill:#37474f"></path><path d="M108.57,173.05a3.53,3.53,0,1,1-3.53-3.53A3.53,3.53,0,0,1,108.57,173.05Z" style="fill:#ebebeb"></path><path d="M123,173.05a3.54,3.54,0,1,1-3.53-3.53A3.53,3.53,0,0,1,123,173.05Z" style="fill:#50AE6B"></path><rect x="79.34" y="180.3" width="153.32" height="1" style="fill:#ebebeb"></rect><rect x="541.33" y="237.31" width="153.32" height="103.32" style="fill:#fff"></rect><path d="M695.15,341.13H540.83V236.81H695.15Zm-153.32-1H694.15V237.81H541.83Z" style="fill:#ebebeb"></path><path d="M556.14,245.13a3.53,3.53,0,1,1-3.53-3.53A3.53,3.53,0,0,1,556.14,245.13Z" style="fill:#37474f"></path><path d="M570.56,245.13A3.53,3.53,0,1,1,567,241.6,3.53,3.53,0,0,1,570.56,245.13Z" style="fill:#ebebeb"></path><path d="M585,245.13a3.53,3.53,0,1,1-3.53-3.53A3.53,3.53,0,0,1,585,245.13Z" style="fill:#50AE6B"></path><rect x="541.33" y="252.38" width="153.32" height="1" style="fill:#ebebeb"></rect><path d="M187.08,266.63a16.22,16.22,0,0,1-16.23,16.23c-.29,0-.56,0-.83,0l-28.88.06a16.24,16.24,0,0,1,0-32.47h28.61c.37,0,.73,0,1.1,0A16.24,16.24,0,0,1,187.08,266.63Z" style="fill:#a6a6a6"></path><g id="freepik--IaQ7Yo--inject-16"><path d="M141.32,267.16a3.26,3.26,0,0,1,.57-1.69c.14-.23.3-.45.45-.67l1-1c.37-.27.75-.56,1.13-.81a14.11,14.11,0,0,1,5.15-2,32.72,32.72,0,0,1,12.78,0,14.11,14.11,0,0,1,5.07,2c.41.27.79.57,1.18.85l1,.94a12.21,12.21,0,0,1,.69,1.13,9.69,9.69,0,0,1,.41,1.22l-.29,0-8.07,0A.34.34,0,0,1,162,267a2.81,2.81,0,0,0-2.38-1.53,57.36,57.36,0,0,0-7.3,0,2.79,2.79,0,0,0-2.38,1.53c-.07.11-.12.19-.28.19h-8.33Z" style="fill:#fff"></path><path d="M141.31,271.88V269c0-.07,0-.14,0-.19h8.27c0,.18,0,.39,0,.6,0,.81,0,1.62,0,2.43a.92.92,0,0,1-1.05,1.05h-6.16A.92.92,0,0,1,141.31,271.88Z" style="fill:#fff"></path><path d="M162.37,271.92c0-1,0-2.07.08-3.1l8.15,0c0,.05,0,.12,0,.18,0,1,0,1.93,0,2.9a.9.9,0,0,1-1,1h-6.24A.89.89,0,0,1,162.37,271.92Z" style="fill:#fff"></path></g><path d="M685.89,240.53a4.53,4.53,0,0,1,0-4.72c.24-.39.47-.8.69-1.21s.43-.83.63-1.25a4.49,4.49,0,0,1,3.89-2.63l5.8-.18-.59-18.88-5.83.17a4.44,4.44,0,0,1-4-2.38,25.91,25.91,0,0,0-1.45-2.34,4.56,4.56,0,0,1-.33-4.73l2.74-5.1-16.66-8.94-2.73,5.1a4.55,4.55,0,0,1-4.13,2.35,25.19,25.19,0,0,0-2.75.09,4.48,4.48,0,0,1-4.22-2l-3.08-5-16.06,10,3.07,5a4.39,4.39,0,0,1,0,4.62c-.25.42-.49.84-.72,1.28s-.46.87-.66,1.31a4.42,4.42,0,0,1-3.88,2.56l-5.8.18.58,18.89,5.79-.19a4.45,4.45,0,0,1,4,2.29,27.93,27.93,0,0,0,1.58,2.56,4.4,4.4,0,0,1,.25,4.62l-2.73,5.1L656,255.94l2.73-5.1a4.53,4.53,0,0,1,4.13-2.34,25.45,25.45,0,0,0,2.76-.09,4.48,4.48,0,0,1,4.22,2.05l3.07,4.95,16.06-10Zm-28-3.9A15.48,15.48,0,1,1,676,231.18,15.49,15.49,0,0,1,657.91,236.63Z" style="fill:#ebebeb"></path><path d="M619.1,184.67a3.16,3.16,0,0,1-1.54-2.92c0-.33,0-.65,0-1s0-.66,0-1a3.13,3.13,0,0,1,1.53-2.91l3.52-2L616,163.38l-3.52,2a3.16,3.16,0,0,1-3.3-.12,18.1,18.1,0,0,0-1.71-1,3.13,3.13,0,0,1-1.74-2.79v-4.06H592.49v4.06a3.13,3.13,0,0,1-1.74,2.79,16.77,16.77,0,0,0-1.7,1,3.16,3.16,0,0,1-3.31.12l-3.51-2-6.62,11.47,3.53,2a3.14,3.14,0,0,1,1.54,2.91c0,.32,0,.64,0,1s0,.65,0,1a3.15,3.15,0,0,1-1.55,2.92l-3.52,2,6.62,11.46,3.5-2a3.14,3.14,0,0,1,3.3.11,19.62,19.62,0,0,0,1.72,1,3.15,3.15,0,0,1,1.74,2.8v4.05h13.24V200a3.15,3.15,0,0,1,1.74-2.8,18.26,18.26,0,0,0,1.72-1,3.14,3.14,0,0,1,3.3-.11l3.51,2,6.61-11.46Zm-20,7A10.85,10.85,0,1,1,610,180.77,10.85,10.85,0,0,1,599.12,191.62Z" style="fill:#ebebeb"></path><path d="M138.87,154l6.61,11.46,3.51-2a3.16,3.16,0,0,1,3.3.12,18.26,18.26,0,0,0,1.72,1,3.14,3.14,0,0,1,1.74,2.79v4.06H169v-4.06a3.14,3.14,0,0,1,1.74-2.79,19.62,19.62,0,0,0,1.72-1,3.16,3.16,0,0,1,3.3-.12l3.51,2L185.87,154l-3.52-2A3.15,3.15,0,0,1,180.8,149c0-.33,0-.65,0-1s0-.65,0-1a3.14,3.14,0,0,1,1.54-2.91l3.53-2-6.61-11.47-3.52,2a3.16,3.16,0,0,1-3.3-.12,18.1,18.1,0,0,0-1.71-1,3.14,3.14,0,0,1-1.74-2.79v-4.06H155.75v4.06a3.14,3.14,0,0,1-1.74,2.79,18.1,18.1,0,0,0-1.71,1,3.16,3.16,0,0,1-3.3.12l-3.52-2-6.61,11.47,3.52,2a3.13,3.13,0,0,1,1.53,2.91c0,.32,0,.65,0,1s0,.65,0,1a3.16,3.16,0,0,1-1.54,2.92ZM151.52,148a10.85,10.85,0,1,1,10.84,10.85A10.84,10.84,0,0,1,151.52,148Z" style="fill:#ebebeb"></path><circle cx="345.92" cy="150.22" r="58.81" transform="translate(116.6 449.62) rotate(-76.02)" style="fill:#ebebeb"></circle><circle cx="345.92" cy="150.22" r="44.89" transform="translate(116.14 449.26) rotate(-75.94)" style="fill:#fff"></circle><circle cx="345.92" cy="150.22" r="32.08" transform="translate(115.71 448.93) rotate(-75.85)" style="fill:#ebebeb"></circle><circle cx="345.92" cy="150.22" r="17.73" transform="translate(115.22 448.55) rotate(-75.76)" style="fill:#fff"></circle><circle cx="345.92" cy="150.22" r="8.02" transform="translate(114.88 448.29) rotate(-75.69)" style="fill:#ebebeb"></circle><rect x="336.6" y="110.75" width="95.27" height="2.29" transform="translate(33.42 304.47) rotate(-45)" style="fill:#c7c7c7"></rect><polygon points="354.72 147.86 345.92 150.22 348.27 141.41 354.72 147.86" style="fill:#a6a6a6"></polygon><polygon points="429.19 73.83 416.56 86.46 406.65 89.48 409.67 79.58 422.31 66.94 419.28 76.85 429.19 73.83" style="fill:#a6a6a6"></polygon></g><g id="freepik--Desk--inject-16"><polygon points="45.3 391.02 127.73 390.78 210.15 390.69 375 390.52 539.85 390.69 622.27 390.78 704.7 391.02 622.27 391.27 539.85 391.35 375 391.52 210.15 391.35 127.73 391.26 45.3 391.02" style="fill:#263238"></polygon></g><g id="freepik--Devices--inject-16"><polygon points="253.88 396.92 116.07 396.92 105.4 303.32 243.21 303.32 253.88 396.92" style="fill:#37474f"></polygon><polygon points="246.37 390.64 122.15 390.64 112.91 309.6 237.13 309.6 246.37 390.64" style="fill:#fff"></polygon><rect x="190.33" y="390.64" width="141.45" height="6.28" style="fill:#37474f"></rect><rect x="260.58" y="390.64" width="71.19" height="6.28" style="fill:#263238"></rect><polygon points="202.49 309.6 122.08 390.01 119.68 368.98 179.05 309.6 202.49 309.6" style="fill:#ebebeb"></polygon><polygon points="244.27 372.18 225.81 390.64 202.37 390.64 241.87 351.14 244.27 372.18" style="fill:#ebebeb"></polygon><polygon points="128.3 309.6 114.49 323.41 113.67 316.24 120.31 309.6 128.3 309.6" style="fill:#ebebeb"></polygon><polygon points="240.33 337.62 187.31 390.64 179.31 390.64 239.51 330.44 240.33 337.62" style="fill:#ebebeb"></polygon><polygon points="138.72 309.6 115.55 332.77 115.35 330.97 136.72 309.6 138.72 309.6" style="fill:#ebebeb"></polygon><polygon points="213.98 309.6 132.94 390.64 130.94 390.64 211.98 309.6 213.98 309.6" style="fill:#ebebeb"></polygon><polygon points="238.98 325.77 174.11 390.64 172.11 390.64 238.78 323.97 238.98 325.77" style="fill:#ebebeb"></polygon><polygon points="495.3 396.92 633.12 396.92 643.78 303.32 505.97 303.32 495.3 396.92" style="fill:#37474f"></polygon><polygon points="502.81 390.64 627.04 390.64 636.27 309.6 512.05 309.6 502.81 390.64" style="fill:#fff"></polygon><rect x="417.41" y="390.64" width="141.45" height="6.28" style="fill:#37474f"></rect><rect x="417.41" y="390.64" width="71.19" height="6.28" style="fill:#263238"></rect><polygon points="632.7 340.99 629.68 367.45 606.49 390.64 583.05 390.64 632.7 340.99" style="fill:#ebebeb"></polygon><polygon points="588.65 309.6 507.62 390.64 502.81 390.64 505.21 369.61 565.22 309.6 588.65 309.6" style="fill:#ebebeb"></polygon><polygon points="535.86 309.6 508.99 336.47 510.02 327.44 527.86 309.6 535.86 309.6" style="fill:#ebebeb"></polygon><polygon points="624.25 309.6 543.21 390.64 535.21 390.64 616.25 309.6 624.25 309.6" style="fill:#ebebeb"></polygon><polygon points="633.85 330.89 633.6 333.15 576.11 390.64 574.11 390.64 633.85 330.89" style="fill:#ebebeb"></polygon><polygon points="632.64 309.6 551.61 390.64 549.61 390.64 630.65 309.6 632.64 309.6" style="fill:#ebebeb"></polygon><polygon points="557.16 309.6 506.24 360.52 506.5 358.26 555.16 309.6 557.16 309.6" style="fill:#ebebeb"></polygon></g><g id="freepik--Characters--inject-16"><path d="M244.12,256c17.09,34.51,42.4,69,49.18,75.46,18.22,17.48,66.86,30.05,81.2,30.45,6.19.17,14.75-40.95,10.18-45.74s-64.62-17.86-67.84-20.32C314.61,294.1,286,266.87,267,250.7,243.37,230.61,239.63,246.9,244.12,256Z" style="fill: rgb(235, 148, 129);"></path><path d="M371.42,310.42l-15.51,48.95S305.09,346,291.49,332.92s-41.77-59.9-47.27-75.34-1.92-27.63,23-7.6,46.05,40.52,50.46,43.82S371.42,310.42,371.42,310.42Z" style="fill:#455a64"></path><path d="M355.68,312.38a2.5,2.5,0,1,0,2.09-2.85A2.5,2.5,0,0,0,355.68,312.38Z" style="fill:#263238"></path><path d="M343.23,308.79a2.5,2.5,0,1,0,2.09-2.84A2.49,2.49,0,0,0,343.23,308.79Z" style="fill:#263238"></path><path d="M318.42,347.24c-11.13-4.32-21.74-9.35-26.93-14.32-13.6-13-41.77-59.9-47.27-75.34-3.52-9.87-3.33-18.41,3.77-18.06Z" style="fill:#263238"></path><path d="M163.06,390.62l128.3,0c.52-4.69-25.88-135.42-38.45-151.81-2.69-3.51-11.56-4.48-19.09-3.54a34.07,34.07,0,0,0-5.81,1.18.85.85,0,0,1-.19.06,13.59,13.59,0,0,0-4.27,2.09C202.58,255.37,162.05,389.47,163.06,390.62Z" style="fill:#455a64"></path><polygon points="242.47 268.39 247.93 257.77 254.97 265.45 253.25 273.1 246.29 273.99 242.47 268.39" style="fill:#263238"></polygon><polygon points="246.29 273.99 242.97 352.12 257.61 377.96 265.21 348.88 253.25 273.1 246.29 273.99" style="fill:#263238"></polygon><path d="M246.09,256.35c-2-.08-15.42-10.56-19.54-18.73-.28-.56.76-6.32,1.69-13.39.54-4.29,1-9.08,1.2-13.48,0-.91,3.05.86,3.05.86l5.65,1.56,18.7,5.21s-3,9.14-3.24,16.82a10.68,10.68,0,0,0,.13,1.82,2.16,2.16,0,0,1,0,.3C254.21,240.77,249.4,256.48,246.09,256.35Z" style="fill: rgb(235, 148, 129);"></path><path d="M253.73,237a2.16,2.16,0,0,1,0,.3,17.6,17.6,0,0,1-2.84.05c-18.59-1-20.12-24.76-20.12-24.76l7.34.56,18.7,5.21s-3,9.14-3.24,16.82A10.68,10.68,0,0,0,253.73,237Z" style="fill:#263238"></path><path d="M239.68,229.87s0,0,0,0" style="fill:none;stroke:#f4a69d;stroke-linecap:round;stroke-linejoin:round;stroke-width:0px"></path><path d="M225.1,178.39c-2.81,9.85,2.91,38.06,10,44.24,10.27,9,26.83,9.52,34.37-2.78,7.31-11.91-.78-48.54-8.68-54.13C249.17,157.49,229.24,163.83,225.1,178.39Z" style="fill: rgb(235, 148, 129);"></path><path d="M253,194.81c0-.07-.13.12-.11.19.43,1.89.62,4.13-1,5.1-.05,0,0,.13,0,.11C254,199.49,253.75,196.53,253,194.81Z" style="fill:#263238"></path><path d="M250.94,193.16c-3.1.37-2.13,6.55.74,6.21S253.54,192.84,250.94,193.16Z" style="fill:#263238"></path><path d="M264.17,193.38c0-.08.16.06.17.14.24,1.93.84,4.09,2.67,4.45.06,0,.07.11,0,.11C264.85,198.12,264.09,195.24,264.17,193.38Z" style="fill:#263238"></path><path d="M265.56,191.11c3-.72,4.26,5.42,1.44,6.08S263,191.71,265.56,191.11Z" style="fill:#263238"></path><path d="M248.06,190.71a22.41,22.41,0,0,0,2.26-1.22,4.14,4.14,0,0,0,2.07-1.68,1.33,1.33,0,0,0-.46-1.55,3.28,3.28,0,0,0-3.32.18,4.86,4.86,0,0,0-2.42,2.49A1.41,1.41,0,0,0,248.06,190.71Z" style="fill:#263238"></path><path d="M267.46,187.62c-.88,0-1.69-.16-2.55-.25a4.11,4.11,0,0,1-2.56-.76,1.3,1.3,0,0,1-.18-1.6,3.29,3.29,0,0,1,3.13-1.12,4.87,4.87,0,0,1,3.2,1.36A1.42,1.42,0,0,1,267.46,187.62Z" style="fill:#263238"></path><path d="M254.05,212.86c.53.37,1.09.92,1.79.87a5.08,5.08,0,0,0,2-.81.07.07,0,0,1,.09.09,2.6,2.6,0,0,1-2.26,1.42,2.08,2.08,0,0,1-1.78-1.46C253.84,212.87,254,212.8,254.05,212.86Z" style="fill:#263238"></path><path d="M261.35,208.15a7.85,7.85,0,0,1-2.72,2.89,3.46,3.46,0,0,1-2.09.46c-1.6-.16-1.85-1.55-1.76-2.8a8.44,8.44,0,0,1,.39-1.94A10.18,10.18,0,0,0,261.35,208.15Z" style="fill:#fff"></path><path d="M255.17,206.81A6.63,6.63,0,0,0,260,209a8.3,8.3,0,0,0,2.37-.27,2.2,2.2,0,0,0,.44-.12c.13,0,.26-.07.41-.13a.48.48,0,0,0,.31-.49h0a.59.59,0,0,0-.05-.19v0l0-.17c-.19-1.48-.69-3.7-.69-3.7.58.19,3.52,1,3.36.23-1.38-6.32-2.92-13.34-5.63-19.34a.18.18,0,0,0-.34.11c1.08,6.12,3.24,12,4.44,18.15a11.7,11.7,0,0,0-3.23-.46c-.2.1,1,4.28,1.07,4.95v.07c-2.43.71-4.42.25-7.08-1C255.16,206.52,255,206.67,255.17,206.81Z" style="fill:#263238"></path><path d="M228.42,200.39c6.73-1,6.25-13.43,6.25-13.43s11.29-3.59,11.7-12.54c0,0,12,5.41,20.18,1s4.94-13.89,3.68-15.84-5.48,2.63-5.48,2.63-1.36-5.45-2.91-5.8-2.68,3.23-2.68,3.23-11.67-2.1-21.72-.34S223.88,172,223.88,172s-5.23,1.93-6.42,6S224.12,201,228.42,200.39Z" style="fill:#263238"></path><path d="M232,187.44c9.12-.12,14.19-6.93,14.24-15.69a.09.09,0,0,1,.17,0c.9,8-5.25,18-14.44,16.11C231.71,187.8,231.72,187.44,232,187.44Z" style="fill:#263238"></path><path d="M224.1,171.78a.1.1,0,0,1,.09.17c-2.34,1.53-5.08,2.81-6.51,5.35-1.72,3.07-.74,6.62.52,9.64,1.93,4.67,5.36,10.61,10.11,12.83.28.13.07.53-.2.42-5.66-2.31-9.88-10.05-11.43-15.66C214.94,178.25,218.39,174,224.1,171.78Z" style="fill:#263238"></path><path d="M256.54,175.49c4.29,1.8,10.15,1,13.62-2.22,4.22-4,2.43-9.25-.27-13.48-.13-.2.16-.49.34-.3,3.37,3.57,4.48,9.58,1.13,13.56s-10.39,5-15.12,3C255.85,175.92,256.14,175.32,256.54,175.49Z" style="fill:#263238"></path><path d="M251.44,206a8.3,8.3,0,1,1,7.64-10.64h0a8.3,8.3,0,0,1-5.61,10.3A8.45,8.45,0,0,1,251.44,206Zm-.59-15.48a7.79,7.79,0,0,0-1.76.29,7.18,7.18,0,1,0,1.76-.29Z" style="fill:#455a64"></path><path d="M270.23,203c-3.17.12-6.17-3-6.84-7.29a9.93,9.93,0,0,1,.84-6,5.5,5.5,0,0,1,4-3.15,5.44,5.44,0,0,1,4.75,1.78,10,10,0,0,1,2.63,5.46c.7,4.52-1.46,8.63-4.82,9.15A3.31,3.31,0,0,1,270.23,203Zm-1.42-15.39-.42,0a4.46,4.46,0,0,0-3.17,2.56,8.83,8.83,0,0,0-.73,5.33c.61,3.91,3.34,6.75,6.11,6.32s4.51-4,3.9-7.89a8.84,8.84,0,0,0-2.31-4.85A4.63,4.63,0,0,0,268.81,187.6Z" style="fill:#455a64"></path><path d="M259,196.38l-.83-.73c1.08-1.24,3.73-3.09,6.07-1.26l-.68.87C261.42,193.62,259.05,196.27,259,196.38Z" style="fill:#455a64"></path><path d="M222.76,204.18l-1-.35c.16-.49,1.67-4.81,4-5.59s17.14-1.64,17.77-1.68l.07,1.11c-4.28.26-15.77,1.06-17.49,1.62S223.16,203,222.76,204.18Z" style="fill:#455a64"></path><path d="M232.7,201.64s-6.75-8.9-10.82-6.45,1.27,15.51,6.22,17.14a5,5,0,0,0,6.53-2.93Z" style="fill: rgb(235, 148, 129);"></path><path d="M223.51,198.9c-.08,0-.09.1,0,.13,3.48,1.25,5.4,4.35,6.79,7.58-1.07-1.22-2.48-1.86-4.13-.59a.11.11,0,0,0,.1.18,3.06,3.06,0,0,1,3.4.94,14.12,14.12,0,0,1,1.71,2.65c.18.3.72.11.59-.24l0-.07C231.82,205.12,228.2,199.15,223.51,198.9Z" style="fill:#263238"></path><path d="M253.83,237.68l-6.68,16.39-20.24-20.7L221.14,240s19.78,32.86,19.9,31.38l6.76-14.06,9.69,9.81-.73-24.58Z" style="fill:#455a64"></path><path d="M257.82,255c-.26-4.06-.41-8.15-.85-12.18,0-.15-.24-.21-.28,0-.82,3.91.25,19.41.22,23.12l0,0c-.4-.42-9-8.63-9.07-8.5-1.46,2.23-6.42,12.47-6.76,13.4-3.13-5.22-15.11-24.2-18.82-29.14a.14.14,0,0,0-.24.14c2.76,5.52,18.62,31.07,18.87,31a161,161,0,0,0,7.06-14.86c1.45,1.78,10.11,11,10.14,10.44A126.35,126.35,0,0,0,257.82,255Z" style="fill:#263238"></path><polygon points="295.77 408.66 195.86 418.55 195.54 341.1 295.45 331.2 295.77 408.66" style="fill:#50AE6B"></polygon><polygon points="228.15 329.3 195.45 332.54 195.54 341.1 230.53 337.63 228.15 329.3" style="fill:#50AE6B"></polygon><g style="opacity:0.1"><polygon points="295.77 408.66 195.86 418.55 195.54 341.1 295.45 331.2 295.77 408.66"></polygon><polygon points="228.15 329.3 195.45 332.54 195.54 341.1 230.53 337.63 228.15 329.3"></polygon></g><polygon points="295.7 408.67 199.34 418.21 185.56 340.54 288.27 331.92 295.7 408.67" style="fill:#ebebeb"></polygon><polygon points="295.7 408.67 196.89 418.45 182.12 343.8 285.99 333.52 295.7 408.67" style="fill:#fff"></polygon><polygon points="295.52 408.69 195.4 418.6 180.78 345.56 280.91 335.65 295.52 408.69" style="fill:#50AE6B"></polygon><path d="M210.12,250.3c-34.15,31-58.8,84.4-58,98.79,1,19,35.44,51.52,57.87,60.93,5.67,2.38,27.61-44.06,19.31-46.48-8.76-2.55-29-20.91-30-21.75-2.1-1.78,14.22-42.41,21.05-67.07C228,246.87,224.49,237.26,210.12,250.3Z" style="fill: rgb(235, 148, 129);"></path><path d="M197.27,402.92C219,418.6,248.52,422,253.61,421.48c4.35-.43,6.58-.69,6.58-.69,7.81-.61,10.61-4.31,10.61-4.31s9.24,1.94,11.34-3.44c2.38-6-11.06-7.59-17.92-13-15.73-12.31-34.65-34.21-38.83-38.21Z" style="fill: rgb(235, 148, 129);"></path><path d="M238.67,398.76c4.7,3.53,9.23,7.12,14.38,10,5.66,3.15,11.63,5.24,17.66,7.52a.16.16,0,0,1-.09.3,68.18,68.18,0,0,1-32.27-17.42C238.14,399,238.43,398.59,238.67,398.76Z" style="fill:#263238"></path><path d="M229.86,407.18c4.76,3.18,13.17,8.72,30.38,13.43.06,0,.05.11,0,.1a61.08,61.08,0,0,1-30.68-13C229.27,407.45,229.54,407,229.86,407.18Z" style="fill:#263238"></path><path d="M246.2,384.05c-1.41-2.42-.15-3.18,4.47-1.36s21.41,13,24.8,6.78S255,367.92,247,365.48s-21.63-3.61-21.63-3.61C229.44,365.8,238.35,376.25,246.2,384.05Z" style="fill: rgb(235, 148, 129);"></path><path d="M198.05,406.41l27.21-45.67s-25.46-17.86-25.58-19.64,17.89-51,23.33-75.22,2.75-35.77-21.09-8.77-54.41,72.43-52.79,91.9S198.05,406.41,198.05,406.41Z" style="fill:#455a64"></path><path d="M218.49,289c-1,1.73-2.05,3.43-2.94,5.21-.3.58-.59,1.16-.88,1.74.22-.7.45-1.39.68-2.09,1.39-4.39,2.74-8.8,3.92-13.26a.1.1,0,0,0-.19-.07c-3.14,7.56-5.74,15.35-8.32,23.12s-5,15.7-7.36,23.6c-1.3,4.42-2.64,8.86-3.66,13.35a.08.08,0,0,0,.15,0c1.5-3.85,2.77-7.8,4.07-11.72s2.62-7.83,3.89-11.75q3-9.39,6-18.79a20.94,20.94,0,0,0,2.18-3.76c.93-1.82,1.67-3.72,2.49-5.58A0,0,0,1,0,218.49,289Z" style="fill:#263238"></path><path d="M193.22,394.94a2.5,2.5,0,1,0,3.15-1.6A2.51,2.51,0,0,0,193.22,394.94Z" style="fill:#263238"></path><path d="M183.71,386.15a2.5,2.5,0,1,0,3.15-1.61A2.5,2.5,0,0,0,183.71,386.15Z" style="fill:#263238"></path><path d="M166.61,377.14c3.15,2.68,6.11,5.56,9,8.46,1.46,1.46,2.91,2.92,4.34,4.4s2.84,3,4.25,4.51A87.38,87.38,0,0,1,175,386.3,113.08,113.08,0,0,1,166.61,377.14Z" style="fill:#263238"></path><path d="M515,171c2.14-6.88,11.5-22,26.61-17.45C563.12,160.05,562.3,202.71,572,217c17.56,25.8,16,49.54-.64,51.79-18.61,2.51-34.48-18.7-29.81-60.92,2.92-26.4-3.43-38.82-8.77-38.53S523.9,176,523.9,176Z" style="fill:#263238"></path><path d="M515.93,168.41a42.6,42.6,0,0,1,5.29-8.89,25.34,25.34,0,0,1,7.91-6.88,17.28,17.28,0,0,1,10.43-2,22.38,22.38,0,0,1,10,3.8,25.07,25.07,0,0,1,7,7.93,45.82,45.82,0,0,1,4.06,9.66,92.12,92.12,0,0,1,3.2,20.41,136.36,136.36,0,0,0-4.64-20,49.44,49.44,0,0,0-4.19-9.17,23.68,23.68,0,0,0-6.59-7.3,20.87,20.87,0,0,0-9.07-3.56,16.1,16.1,0,0,0-9.51,1.51,26,26,0,0,0-7.87,6.14,43.7,43.7,0,0,0-3.21,4Q517.26,166.21,515.93,168.41Z" style="fill:#263238"></path><path d="M542.78,193.24c-.17,4.22-.81,8.4-1.28,12.58s-1.06,8.34-1.46,12.51-.66,8.35-.63,12.52a63,63,0,0,0,1.09,12.37,32.42,32.42,0,0,0,4.32,11.41,35.13,35.13,0,0,0,8.45,8.84,26.18,26.18,0,0,0,11.24,4.81,23.8,23.8,0,0,0,6.2.26,23,23,0,0,0,3.08-.5,11.47,11.47,0,0,0,3-1.05,15.71,15.71,0,0,1-6,2.06,24.83,24.83,0,0,1-6.39.18,26.6,26.6,0,0,1-6.26-1.51,28.61,28.61,0,0,1-5.72-3,33.88,33.88,0,0,1-5-4.12l-1.11-1.17-1.07-1.21a23.86,23.86,0,0,1-2-2.59,33.92,33.92,0,0,1-4.69-12c-1.6-8.47-1.11-17.07-.05-25.43.53-4.2,1.26-8.36,2-12.5S542.18,197.41,542.78,193.24Z" style="fill:#263238"></path><path d="M513.68,171c-.06-2,1.37-4.53,2.65-4.88s10.76,3.72,11.58,6.16-3.41,4.58-3.41,4.58Z" style="fill:#455a64"></path><path d="M521,258.3c-5.64,12.26-47.56,69.89-68.37,71.46-21.78,1.65-74-33.94-79-36.91-13.73-8.12,24.56-45.6,31.18-39,11.06,11.13,37.51,32.09,44,30.68,13.6-3,41.91-26.76,62-39.14C522.85,238,527.23,244.73,521,258.3Z" style="fill: rgb(235, 148, 129);"></path><path d="M376.88,294.76c-2.36-1.57-21.42-12.16-28.57-22.36C344.53,267,335.8,251,338.8,248.24c2.74-2.48,6.21,1.33,6.21,1.33s-3.79-7.21.06-10.61,9.38,3.33,9.38,3.33-3.35-7.69.73-10.8,8.5,4.57,8.5,4.57-3.39-6.88,1.05-8c5.35-1.39,10.17,12,15.35,17.16,1.17,1.17,25.53,22,25.53,22Z" style="fill: rgb(235, 148, 129);"></path><path d="M364,236.06c3.57,9.84,6.83,13.53,15,19.85.16.12,0,.39-.17.27-8.53-5.46-13.29-9.5-15.29-20C363.4,235.69,363.81,235.59,364,236.06Z" style="fill:#263238"></path><path d="M354.75,242.24c4.59,9.9,8.1,13.93,16.14,21.18.11.1-.05.3-.17.21-8.49-6.45-13.14-10.58-16.44-21.08C354.13,242.08,354.54,241.79,354.75,242.24Z" style="fill:#263238"></path><path d="M345.41,249.91c5.14,9.26,8.79,13.85,17.5,19.88a.19.19,0,0,1-.2.33c-9.48-5.29-14.08-11-17.57-20C344.91,249.48,345.09,249.32,345.41,249.91Z" style="fill:#263238"></path><path d="M413.86,264.19s-5.4-11.95-8.94-16.68-23.18-17.49-26.18-13.4c-3.87,5.27,6,14.88,11.48,18.95,0,0-9,12.2-3.36,20.63S413.86,264.19,413.86,264.19Z" style="fill: rgb(235, 148, 129);"></path><path d="M378.15,235.9c-.06,7.36,7.45,12.25,12.45,16.59a.6.6,0,0,1-.06,1c-3.41,5.37-6.67,13.93-4.09,20.13a.15.15,0,0,1-.27.14c-3.67-6.27-1.16-14.94,3-20.58-5.2-4.37-12.52-9.6-11.06-17.27C378.09,235.86,378.15,235.86,378.15,235.9Z" style="fill:#263238"></path><path d="M520.43,261.78c-6.53,13-44.59,68.51-65.15,69.39s-63.62-16.66-63.62-16.66l31.9-48.59s22.09,15.94,25.56,16.06S499,251.47,509.8,244.73,531,240.62,520.43,261.78Z" style="fill:#50AE6B"></path><path d="M420.79,314.87a17.31,17.31,0,0,1,.11-4.44,17.66,17.66,0,0,1,1.1-4.3,17.32,17.32,0,0,1-.11,4.44A17.89,17.89,0,0,1,420.79,314.87Z" style="fill:#fff"></path><path d="M484.3,305.14a17.79,17.79,0,0,1,.11-4.44,17.24,17.24,0,0,1,1.11-4.3,19.91,19.91,0,0,1-1.22,8.74Z" style="fill:#fff"></path><path d="M487.82,268.17a17.32,17.32,0,0,1-4.44-.12,17,17,0,0,1-4.3-1.1,17.79,17.79,0,0,1,4.44.11A17.35,17.35,0,0,1,487.82,268.17Z" style="fill:#fff"></path><path d="M436.63,284.94a17.69,17.69,0,0,1-4.43-.12,16.79,16.79,0,0,1-4.3-1.1,17.69,17.69,0,0,1,4.43.11A17.24,17.24,0,0,1,436.63,284.94Z" style="fill:#fff"></path><path d="M444.1,330.08a2.11,2.11,0,0,1-.19.23l-.26,0Z" style="fill:#fff"></path><path d="M408,297.42a20,20,0,0,1,7-5.32,17.55,17.55,0,0,1-3.22,3.06A17.18,17.18,0,0,1,408,297.42Z" style="fill:#fff"></path><path d="M461.23,286.38a17.89,17.89,0,0,1,3.22-3.06,17.57,17.57,0,0,1,3.82-2.26,17.25,17.25,0,0,1-3.22,3.06A17.57,17.57,0,0,1,461.23,286.38Z" style="fill:#fff"></path><path d="M443.57,301.62a19.49,19.49,0,0,1,5.32,7,19.72,19.72,0,0,1-5.32-7Z" style="fill:#fff"></path><path d="M494.11,278.83a19.69,19.69,0,0,1,5.31,7,17.13,17.13,0,0,1-3.05-3.21A17.4,17.4,0,0,1,494.11,278.83Z" style="fill:#fff"></path><path d="M430.47,273.81c-4,7.27-7.89,14.61-12.23,21.69A232.64,232.64,0,0,1,404.56,316a.14.14,0,0,1-.23-.14c3.84-7.25,8.23-14.25,12.5-21.25s8.89-13.94,13.18-21C430.18,273.33,430.62,273.53,430.47,273.81Z" style="fill:#263238"></path><path d="M520.43,261.78c-6.53,13-44.59,68.51-65.15,69.39-5,.21-11.31-.66-18-2.11,16-17.09,60.67-65.29,81.36-87.6C524.91,241.08,528,246.76,520.43,261.78Z" style="fill:#263238"></path><path d="M482.5,390.62H603.17s-46.92-118.79-71.91-142.69c-6.79-6.49-23.57-6-31.79,4.95-6.74,9-25.45,44.74-26.3,57.61s9.24,25.56,9.24,25.56Z" style="fill:#50AE6B"></path><path d="M497.92,346.11a17.69,17.69,0,0,1,.11-4.43,17.24,17.24,0,0,1,1.11-4.3,17.23,17.23,0,0,1-.12,4.43A17.66,17.66,0,0,1,497.92,346.11Z" style="fill:#fff"></path><path d="M580.84,368.47A17.71,17.71,0,0,1,581,364a17.24,17.24,0,0,1,1.11-4.3,17.32,17.32,0,0,1-.12,4.44A17.7,17.7,0,0,1,580.84,368.47Z" style="fill:#fff"></path><path d="M528.78,388a17.69,17.69,0,0,1,.11-4.43,17.24,17.24,0,0,1,1.11-4.3,17.23,17.23,0,0,1-.12,4.43A17.66,17.66,0,0,1,528.78,388Z" style="fill:#fff"></path><path d="M516.78,298.34a17.7,17.7,0,0,1,.12-4.43,16.79,16.79,0,0,1,1.1-4.3,19.52,19.52,0,0,1-1.22,8.73Z" style="fill:#fff"></path><path d="M548.85,334.45A17.77,17.77,0,0,1,549,330a17.22,17.22,0,0,1,1.1-4.3,19.53,19.53,0,0,1-1.22,8.74Z" style="fill:#fff"></path><path d="M484.3,305.14a17.79,17.79,0,0,1,.11-4.44,17.24,17.24,0,0,1,1.11-4.3,19.91,19.91,0,0,1-1.22,8.74Z" style="fill:#fff"></path><path d="M526.74,340.64a19.72,19.72,0,0,1-8.74-1.21,17.32,17.32,0,0,1,4.44.11A17.78,17.78,0,0,1,526.74,340.64Z" style="fill:#fff"></path><path d="M563.14,306.13a17.79,17.79,0,0,1-4.44-.11,17.24,17.24,0,0,1-4.3-1.11,19.91,19.91,0,0,1,8.74,1.22Z" style="fill:#fff"></path><path d="M498.19,381.23a17.69,17.69,0,0,1-4.43-.12,16.79,16.79,0,0,1-4.3-1.1,17.69,17.69,0,0,1,4.43.11A17.24,17.24,0,0,1,498.19,381.23Z" style="fill:#fff"></path><path d="M565.9,351.33a17.32,17.32,0,0,1-4.44-.11,17.78,17.78,0,0,1-4.3-1.1,17.32,17.32,0,0,1,4.44.11A17.78,17.78,0,0,1,565.9,351.33Z" style="fill:#fff"></path><path d="M508.77,367.73a17.83,17.83,0,0,1,3.22-3.05,17.18,17.18,0,0,1,3.82-2.26,19.84,19.84,0,0,1-7,5.31Z" style="fill:#fff"></path><path d="M554.4,376.45a17.25,17.25,0,0,1,3.22-3.06,17.57,17.57,0,0,1,3.82-2.26,19.72,19.72,0,0,1-7,5.32Z" style="fill:#fff"></path><path d="M566.48,333.76a17.83,17.83,0,0,1,3.22-3.05,17.18,17.18,0,0,1,3.82-2.26,16.88,16.88,0,0,1-3.22,3.05A17.18,17.18,0,0,1,566.48,333.76Z" style="fill:#fff"></path><path d="M494.43,318.42a17.89,17.89,0,0,1,3.22-3.06,17.57,17.57,0,0,1,3.82-2.26,17.25,17.25,0,0,1-3.22,3.06A17.57,17.57,0,0,1,494.43,318.42Z" style="fill:#fff"></path><path d="M541.09,289a17.89,17.89,0,0,1,3.22-3.06,17.57,17.57,0,0,1,3.82-2.26,17.25,17.25,0,0,1-3.22,3.06A17.57,17.57,0,0,1,541.09,289Z" style="fill:#fff"></path><path d="M485.61,353.56a17.4,17.4,0,0,1-3.17,3v-1.22A15.65,15.65,0,0,1,485.61,353.56Z" style="fill:#fff"></path><path d="M517.32,270.22a17.89,17.89,0,0,1,3.22-3.06,17.57,17.57,0,0,1,3.82-2.26,19.72,19.72,0,0,1-7,5.32Z" style="fill:#fff"></path><path d="M477.53,324.51a17.89,17.89,0,0,1,3.06,3.22,17.57,17.57,0,0,1,2.26,3.82,19.72,19.72,0,0,1-5.32-7Z" style="fill:#fff"></path><path d="M494.11,278.83a19.69,19.69,0,0,1,5.31,7,17.13,17.13,0,0,1-3.05-3.21A17.4,17.4,0,0,1,494.11,278.83Z" style="fill:#fff"></path><path d="M536,352.7a19.84,19.84,0,0,1,5.31,7,17.49,17.49,0,0,1-3-3.22A17.18,17.18,0,0,1,536,352.7Z" style="fill:#fff"></path><path d="M579.4,381.71a17.89,17.89,0,0,1,3.06,3.22,17.57,17.57,0,0,1,2.26,3.82,16.94,16.94,0,0,1-3.06-3.22A17.33,17.33,0,0,1,579.4,381.71Z" style="fill:#fff"></path><path d="M535.15,257.26a19.69,19.69,0,0,1,5.31,7,19.69,19.69,0,0,1-5.31-7Z" style="fill:#fff"></path><path d="M527.36,313.56a17.25,17.25,0,0,1,3.06,3.22,17,17,0,0,1,2.26,3.82,19.72,19.72,0,0,1-5.32-7Z" style="fill:#fff"></path><path d="M523.24,249.08c-.66,1.79-11,12.58-19.33,11.09-2.72-.49-.72-15.44-.72-15.44l-.1-1.14-1.45-15.92,19.69-9.31,2.83-1.2s.11,4.38.19,9.84c0,.26,0,.51,0,.78s0,.6,0,.89c0,.81,0,1.65,0,2.48,0,.63,0,1.24,0,1.91l0,2A100.33,100.33,0,0,1,523.24,249.08Z" style="fill: rgb(235, 148, 129);"></path><path d="M524.35,227a32.06,32.06,0,0,1-21.26,16.59l-1.45-15.92,19.69-9.31,2.83-1.2S524.27,221.54,524.35,227Z" style="fill:#263238"></path><path d="M481.38,204.21c-2.22,28,14.28,32.47,20.32,32.94,5.47.43,24.18,1.2,29.28-26.4s-7.2-37.47-19.67-39.12S483.61,176.23,481.38,204.21Z" style="fill: rgb(235, 148, 129);"></path><path d="M486.1,198.26a17.26,17.26,0,0,0,1.9-.38,3.07,3.07,0,0,0,1.86-.76,1,1,0,0,0,0-1.22,2.47,2.47,0,0,0-2.43-.6,3.69,3.69,0,0,0-2.3,1.27A1.06,1.06,0,0,0,486.1,198.26Z" style="fill:#263238"></path><path d="M504.72,198.66c-.65-.08-1.25-.27-1.89-.41a3.14,3.14,0,0,1-1.85-.8,1,1,0,0,1,0-1.22,2.47,2.47,0,0,1,2.45-.55,3.61,3.61,0,0,1,2.27,1.3A1.07,1.07,0,0,1,504.72,198.66Z" style="fill:#263238"></path><path d="M500.34,205.72c0-.08.15.09.14.17-.12,1.91.06,4.11,1.77,4.8.05,0,0,.12,0,.11C500.13,210.43,499.92,207.5,500.34,205.72Z" style="fill:#263238"></path><path d="M502.11,203.78c3.08-.14,3.12,6,.27,6.16S499.53,203.89,502.11,203.78Z" style="fill:#263238"></path><path d="M503.32,204.1c.55.34,1.08,1,1.73,1s1.31-.58,1.8-1.2c0-.06.1,0,.11.07,0,1.18-.43,2.4-1.69,2.58s-2-.87-2.3-2.06C502.92,204.28,503.11,204,503.32,204.1Z" style="fill:#263238"></path><path d="M489.73,205.29c0-.07-.14.1-.14.18.09,1.91-.13,4.11-1.85,4.77-.06,0-.05.11,0,.1C489.86,210,490.12,207.09,489.73,205.29Z" style="fill:#263238"></path><path d="M488,203.32c-3.08-.19-3.23,6-.38,6.16S490.58,203.48,488,203.32Z" style="fill:#263238"></path><path d="M486.7,203.7c-.49.31-1,.89-1.57.92s-1.16-.66-1.57-1.31c-.05-.06-.1,0-.1.07-.06,1.18.3,2.41,1.42,2.67s1.81-.76,2.12-1.93C487.06,203.91,486.9,203.57,486.7,203.7Z" style="fill:#263238"></path><path d="M500.48,220.84c-.43.47-.86,1.11-1.55,1.2a5.09,5.09,0,0,1-2.07-.37.07.07,0,0,0-.08.1,2.58,2.58,0,0,0,2.47.91,2,2,0,0,0,1.42-1.77C500.69,220.8,500.54,220.77,500.48,220.84Z" style="fill:#263238"></path><path d="M492.53,213.88s-.41,2.86-.42,4.2c0,.13.33.19.78.22,0,0,0,0,.06,0a6.37,6.37,0,0,0,6.22-2.35.14.14,0,0,0-.19-.19,9.67,9.67,0,0,1-5.86,1.64c-.09-.37.87-4.86.65-4.88a12.15,12.15,0,0,0-3.06.68c.69-6,2.32-11.77,2.91-17.72a.18.18,0,0,0-.35-.09c-2.14,6-3.08,12.81-3.94,19C489.21,215.11,492,214.11,492.53,213.88Z" style="fill:#263238"></path><path d="M493.18,218a7.84,7.84,0,0,0,3.11,2.47,3.5,3.5,0,0,0,2.13.16c1.56-.39,1.61-1.81,1.34-3a8.65,8.65,0,0,0-.67-1.87A10.11,10.11,0,0,1,493.18,218Z" style="fill:#263238"></path><path d="M496.29,220.49a3.5,3.5,0,0,0,2.13.16c1.56-.39,1.61-1.81,1.34-3C498.1,217.77,496.45,218.88,496.29,220.49Z" style="fill:#eb9481"></path><path d="M529.74,213.54a11.5,11.5,0,0,1-6.4-9.4,29.89,29.89,0,0,1-12.19-9.91c.18.58,1.51,4.74,2.26,6.84-17.7-3.39-23.12-17-23.12-17-5.77,5.71-6.93,9.37-7.77,11.19,0,0-.08-10.86,5.54-18.11,6.88-8.88,30-11.18,40.61.49C540.12,190.25,529.74,213.54,529.74,213.54Z" style="fill:#263238"></path><path d="M500,198.08a32.54,32.54,0,0,0,9.07,3.37s0,0,0,0a27.67,27.67,0,0,1-13-7.92,25.89,25.89,0,0,1-3.8-5.36,18.25,18.25,0,0,1-2.32-6.76.14.14,0,0,0-.28,0,21.4,21.4,0,0,0,1.38,7,19.19,19.19,0,0,0,3.91,5.88,22.47,22.47,0,0,0,5,3.82" style="fill:#263238"></path><path d="M526.37,212.55s6.06-8.81,10-6.65-.53,14.89-5.18,16.66a4.75,4.75,0,0,1-6.38-2.51Z" style="fill: rgb(235, 148, 129);"></path><path d="M535,209.52c.08,0,.09.09,0,.12-3.26,1.35-5,4.4-6.15,7.55,1-1.22,2.29-1.89,3.92-.74.08.06,0,.19-.09.17a2.92,2.92,0,0,0-3.21,1,15.07,15.07,0,0,0-1.52,2.61c-.15.3-.68.14-.57-.19l0-.08C527.36,215.83,530.56,210,535,209.52Z" style="fill:#263238"></path><path d="M527.34,221.92a2,2,0,1,0,2-2A2.05,2.05,0,0,0,527.34,221.92Z" style="fill:#fff"></path><path d="M494.09,254.79s-5.72,16.26,4.63,17.41,37.38-18.84,37.38-18.84-7.5-12.14-19.48-10.84C506.67,243.59,494.09,254.79,494.09,254.79Z" style="fill: rgb(235, 148, 129);"></path><path d="M543,273.83c0,20.08-11.54,80.29-22.62,88.4-22.17,16.23-74.16,15.11-88.5,15.36-6.19.1-14.32-41.11-9.71-45.85s68-6.5,71.2-8.93c2.25-1.69,20.13-31,30.48-49.84C537.81,247.5,543,263.71,543,273.83Z" style="fill: rgb(235, 148, 129);"></path><path d="M433.17,329.54s-18.71-2.07-31-2.84c-6.87-.44-18.7-.13-23.89,1.85-7.76,3-38.31,20.37-34.26,27.87,3.67,6.78,13-.72,13-.72s-11,7.24-5.26,12.86,17-5.3,17-5.3-12.19,6.88-5.52,12.3c5.79,4.69,20.07-6.53,20.07-6.53s-13.58,5.83-8.12,11.22c6,6,29.55-8.18,29.55-8.18,15.31,5.1,25.19,6.09,36.91,5.35C443.77,377.29,433.17,329.54,433.17,329.54Z" style="fill: rgb(235, 148, 129);"></path><path d="M365.32,365.73l2.77-2.44a62.07,62.07,0,0,1,5.56-4.56c1.92-1.35,3.89-2.6,5.9-3.79s4.39-2.32,6.48-3.64a.14.14,0,1,1,.14.24,65.14,65.14,0,0,0-6,4.18c-1.93,1.41-3.85,2.85-5.77,4.28s-3.82,2.67-5.73,4c-1,.67-1.88,1.39-2.8,2.1a19.71,19.71,0,0,1-2.68,2c-.09.05-.18-.08-.12-.16A15.18,15.18,0,0,1,365.32,365.73Z" style="fill:#263238"></path><path d="M354.76,357.25c1.27-1.65,8.26-7.35,10.13-8.7a66.74,66.74,0,0,1,11.55-6.74.14.14,0,0,1,.14.23c-3.61,2.64-7.26,5.22-10.91,7.81-1.79,1.26-9.71,7.25-10.62,7.77C354.83,357.75,354.63,357.43,354.76,357.25Z" style="fill:#263238"></path><path d="M375,374a94.33,94.33,0,0,1,9.67-8,85.67,85.67,0,0,1,11.51-5.7c.15-.05.27.15.14.23-3.68,2.19-7.38,4.3-11,6.66-1.74,1.15-8.4,6.14-10.16,7.09C375.08,374.33,374.92,374.1,375,374Z" style="fill:#263238"></path><path d="M445.79,380.62l-17.1-54.34s62.22-4,64.24-5,24.2-40.23,33-55.47,22.36-9,17.29,25.43c-5.09,34.59-10.69,61.47-18.44,69.47C515.34,370.39,480.94,380.39,445.79,380.62Z" style="fill:#50AE6B"></path><path d="M497.92,346.11a17.69,17.69,0,0,1,.11-4.43,17.24,17.24,0,0,1,1.11-4.3,17.23,17.23,0,0,1-.12,4.43A17.66,17.66,0,0,1,497.92,346.11Z" style="fill:#fff"></path><path d="M463.54,377.21a17.32,17.32,0,0,1,.11-4.44,17.89,17.89,0,0,1,1.1-4.3,17.31,17.31,0,0,1-.11,4.44A17.66,17.66,0,0,1,463.54,377.21Z" style="fill:#fff"></path><path d="M516.78,298.34a17.7,17.7,0,0,1,.12-4.43,16.79,16.79,0,0,1,1.1-4.3,19.52,19.52,0,0,1-1.22,8.73Z" style="fill:#fff"></path><path d="M526.74,340.64a19.72,19.72,0,0,1-8.74-1.21,17.32,17.32,0,0,1,4.44.11A17.78,17.78,0,0,1,526.74,340.64Z" style="fill:#fff"></path><path d="M467,342.35a17.32,17.32,0,0,1-4.44-.11,17.66,17.66,0,0,1-4.3-1.1,17.32,17.32,0,0,1,4.44.11A17.89,17.89,0,0,1,467,342.35Z" style="fill:#fff"></path><path d="M508.77,367.73a17.83,17.83,0,0,1,3.22-3.05,17.18,17.18,0,0,1,3.82-2.26,19.84,19.84,0,0,1-7,5.31Z" style="fill:#fff"></path><path d="M437.06,335.39a17.83,17.83,0,0,1,3.22-3.05,17.18,17.18,0,0,1,3.82-2.26,16.88,16.88,0,0,1-3.22,3.05A17.18,17.18,0,0,1,437.06,335.39Z" style="fill:#fff"></path><path d="M501.47,313.1a17.25,17.25,0,0,1-3.22,3.06,20.36,20.36,0,0,1-2.88,1.83c.31-.48.65-1,1-1.58a0,0,0,0,1,0,0c.41-.36.84-.71,1.27-1A17.57,17.57,0,0,1,501.47,313.1Z" style="fill:#fff"></path><path d="M543.79,286.39c0,.42-.08.84-.13,1.27a14.38,14.38,0,0,1-2.57,1.38A16.9,16.9,0,0,1,543.79,286.39Z" style="fill:#fff"></path><path d="M478.57,358.88a17.89,17.89,0,0,1,3.22-3.06,17.57,17.57,0,0,1,3.82-2.26,17.25,17.25,0,0,1-3.22,3.06A17.57,17.57,0,0,1,478.57,358.88Z" style="fill:#fff"></path><path d="M477.53,324.51a17.89,17.89,0,0,1,3.06,3.22,17.57,17.57,0,0,1,2.26,3.82,19.72,19.72,0,0,1-5.32-7Z" style="fill:#fff"></path><path d="M540.46,264.29a17.46,17.46,0,0,1-3.05-3.21,18.42,18.42,0,0,1-1.94-3.11,4.93,4.93,0,0,1,.55,0,20.39,20.39,0,0,1,2.18,2.47A17.4,17.4,0,0,1,540.46,264.29Z" style="fill:#fff"></path><path d="M527.36,313.56a17.25,17.25,0,0,1,3.06,3.22,17,17,0,0,1,2.26,3.82,19.72,19.72,0,0,1-5.32-7Z" style="fill:#fff"></path><path d="M512.41,288.78c-2,3-3.91,6.18-5.78,9.31l-.16.26c.09-.24.19-.48.28-.71.61-1.56,1.15-3.15,1.81-4.68,0-.09-.09-.17-.13-.08-.68,1.51-1.43,3-2.07,4.51-.43,1-.82,2.07-1.19,3.12-1.39,2.32-2.78,4.64-4.15,7-1.84,3.14-3.67,6.3-5.52,9.44-.46.77-.9,1.54-1.37,2.31a3,3,0,0,1-1.61,1.49,12.82,12.82,0,0,1-2.55.34c-.91.09-1.82.2-2.73.31-4.14.51-8.25,1.19-12.39,1.73-.1,0-.1.17,0,.16,3.8-.29,7.61-.43,11.41-.74,1.88-.15,3.76-.28,5.62-.52a3.78,3.78,0,0,0,2-.7,5.63,5.63,0,0,0,1.25-1.65q5.65-9.78,11.3-19.57c2.13-3.7,4.29-7.38,6.25-11.17A.14.14,0,0,0,512.41,288.78Z" style="fill:#263238"></path><path d="M543.31,303.29a22.3,22.3,0,0,1-.89,3.67c-.3,1.07-.59,2.14-.91,3.2s-.79,2.39-1.2,3.58q1.26-7.94,2-16c0-.16-.26-.19-.29,0-1,7.47-2.37,14.91-3.94,22.27s-3.47,14.71-5.62,21.94c-1.06,3.56-2.18,7.11-3.42,10.61a28.93,28.93,0,0,1-4.36,8.53,22,22,0,0,1-8.29,5.87,96.29,96.29,0,0,1-10.18,4c-7.88,2.58-16,4.22-24.06,6.15-.09,0-.07.17,0,.16a184.12,184.12,0,0,0,21.94-4.44,90.41,90.41,0,0,0,10.75-3.6c3.21-1.34,6.52-2.79,9.11-5.17a22.76,22.76,0,0,0,5.36-8.28c1.35-3.27,2.41-6.67,3.46-10,2.3-7.38,4.22-14.82,5.79-22.39q.67-3.29,1.25-6.59a42.31,42.31,0,0,0,2.18-6.46c.3-1.15.59-2.3.82-3.47s.3-2.39.63-3.52C543.49,303.2,543.32,303.17,543.31,303.29Z" style="fill:#263238"></path><path d="M456.61,376.24c-2.82-7.81-5.8-15.56-8.27-23.48a233.48,233.48,0,0,1-6.43-23.8.14.14,0,0,1,.26-.07c2.93,7.66,5.31,15.57,7.77,23.39s4.64,15.87,7.13,23.75C457.16,376.33,456.73,376.54,456.61,376.24Z" style="fill:#263238"></path><path d="M446.13,325a41.65,41.65,0,0,0-4.47,0c-1.49,0-3,.1-4.47.16-3,.13-5.95.35-8.92.6a.38.38,0,0,0-.35.49,12.64,12.64,0,0,0,1.52,3.11c.05.05.15,0,.15-.05a10.86,10.86,0,0,0-.78-2.83c2.84-.19,5.68-.36,8.52-.58l4.46-.32c1.45-.12,2.93-.16,4.37-.39C446.28,325.19,446.23,325,446.13,325Z" style="fill:#263238"></path><path d="M379,313.36c3.71,1.84,20.66,2.54,25.6,8.62,3.29,4,3,8.13,4.88,20.2,1.67,10.48-7,8-9.51,2.62-3.92-8.43-7.29-17.67-7.29-17.67a67.31,67.31,0,0,0-8.68.13Z" style="fill: rgb(235, 148, 129);"></path><path d="M391.18,353c5.87-3.72,24.64,20,15.26,26.25S384.53,357.2,391.18,353Z" style="fill: rgb(235, 148, 129);"></path><path d="M381.67,358c5.86-3.72,24.64,20,15.26,26.25S375,362.25,381.67,358Z" style="fill: rgb(235, 148, 129);"></path><path d="M374.93,359c5.85-2.57,19.62,21.58,10.22,26S368.31,361.87,374.93,359Z" style="fill: rgb(235, 148, 129);"></path><path d="M368,358.3c6.15-.73,12.13,25.57,2.16,27S361.07,359.13,368,358.3Z" style="fill: rgb(235, 148, 129);"></path><path d="M389.84,361.19a29.14,29.14,0,0,1,2.92,3.81c1,1.41,1.93,2.84,2.77,4.34a42.29,42.29,0,0,1,2.2,4.42c.66,1.61,1.12,3.33,1.83,4.92a.14.14,0,1,1-.26.1,34.93,34.93,0,0,0-2.38-4.48c-.83-1.45-1.58-2.94-2.39-4.4s-1.54-2.86-2.35-4.27-1.78-2.81-2.53-4.3A.12.12,0,0,1,389.84,361.19Z" style="fill:#263238"></path><path d="M380.07,361.06c.6,1.78,2.62,8.58,3.3,10.34s1.43,3.52,2.2,5.26S387,380.29,388,382a.14.14,0,0,1-.24.13c-.94-1.7-2-3.28-2.9-5s-1.61-3.49-2.3-5.29a89.84,89.84,0,0,1-2.75-10.7C379.76,360.92,380,360.91,380.07,361.06Z" style="fill:#263238"></path><path d="M372.7,362.75c.47,2.54.78,5.11,1.26,7.65.23,1.25.48,2.5.71,3.76.11.6.21,1.21.32,1.82a10.32,10.32,0,0,0,.39,2.08c.07.17-.25.25-.27,0a15.63,15.63,0,0,0-.72-2.23c-.17-.59-.34-1.17-.49-1.77-.31-1.24-.56-2.48-.76-3.75a50.2,50.2,0,0,1-.78-7.54C372.36,362.61,372.67,362.56,372.7,362.75Z" style="fill:#263238"></path></g><g id="freepik--speech-bubble--inject-16"><path d="M464.21,194.59a22.59,22.59,0,0,0,3.85-12.44c0-15.76-17.31-28.53-38.64-28.53s-38.61,12.77-38.61,28.53,17.28,28.53,38.61,28.53c10.35,0,19.72-3,26.65-7.89l13.31,3.38Z" style="fill:#50AE6B"></path><path d="M415.53,182.15a4,4,0,1,1-4-4A4,4,0,0,1,415.53,182.15Z" style="fill:#263238"></path><circle cx="429.43" cy="182.15" r="4.01" style="fill:#263238"></circle><path d="M451.33,182.15a4,4,0,1,1-4-4A4,4,0,0,1,451.33,182.15Z" style="fill:#263238"></path></g><g id="freepik--light-bulb--inject-16"><path d="M324.77,109c-2.23,18.65-14.22,22-16.24,27a87.18,87.18,0,0,0-2.52,9.54l-19.5,0A83.09,83.09,0,0,0,284,136c-2-5-14-8.44-16.1-27.11-1.41-12.26,7.86-31.6,28.49-31.55S326.22,96.75,324.77,109Z" style="fill:#50AE6B"></path><rect x="288.11" y="115.52" width="1" height="31.55" transform="translate(-19 54.42) rotate(-10.43)" style="fill:#fff"></rect><rect x="288.21" y="130.83" width="31.55" height="1" transform="translate(118.53 405.67) rotate(-79.31)" style="fill:#fff"></rect><path d="M296.32,126.12h0c-1.53,0-3.07-1.22-4.33-3.43-.06-.1-.12-.2-.17-.3a2.38,2.38,0,0,1-1.67.91h0c-2.92,0-4.08-6-4.12-6.29l.49-.09c0,.06,1.12,5.87,3.63,5.88h0a2.05,2.05,0,0,0,1.42-.89c-1.23-2.54-1.92-5.86-1-7.37a1.51,1.51,0,0,1,1.35-.79h0a1.77,1.77,0,0,1,1.61.92c.88,1.53.23,4.69-.93,6.68a7.36,7.36,0,0,1-.4.62c.08.16.17.32.26.47.68,1.19,2.09,3.18,3.9,3.18h0c1.21,0,2.42-1,3.42-2.67a4.77,4.77,0,0,0,.24-.44,6,6,0,0,1-.68-1c-1.21-2.1-1.45-5.21-.53-6.79a1.8,1.8,0,0,1,1.58-1h0a1.38,1.38,0,0,1,1.23.76c.86,1.5.38,5.07-1,7.88a2.8,2.8,0,0,0,2,.82h0c1.78,0,3.37-4.25,3.83-5.89l.48.13c-.07.26-1.79,6.26-4.31,6.26h0a3.24,3.24,0,0,1-2.18-.85l-.18.32C299.4,124.53,298.1,126.12,296.32,126.12Zm4-11.85a1.3,1.3,0,0,0-1.15.74c-.82,1.42-.57,4.36.53,6.29a4.67,4.67,0,0,0,.5.72c1.22-2.62,1.68-5.91.92-7.24a.89.89,0,0,0-.8-.51Zm-8.48,0a1,1,0,0,0-.92.54c-.69,1.2-.24,4.12.95,6.66l.22-.35c1.06-1.83,1.7-4.82.93-6.18a1.27,1.27,0,0,0-1.18-.67Z" style="fill:#fff"></path><rect x="284.24" y="144.71" width="24.05" height="4.7" transform="translate(0.35 -0.7) rotate(0.14)" style="fill:#455a64"></rect><rect x="284.22" y="150.17" width="24.05" height="4.7" transform="translate(0.36 -0.7) rotate(0.14)" style="fill:#455a64"></rect><rect x="284.21" y="155.64" width="24.05" height="4.7" transform="translate(0.37 -0.7) rotate(0.13)" style="fill:#455a64"></rect><path d="M297.32,62a15.34,15.34,0,0,1-.12,7.77,15.35,15.35,0,0,1,.12-7.77Z" style="fill:#263238"></path><path d="M275.51,67.34a13.52,13.52,0,0,1,2.33,3.15,13.8,13.8,0,0,1,1.46,3.64A13.52,13.52,0,0,1,277,71,13.67,13.67,0,0,1,275.51,67.34Z" style="fill:#263238"></path><path d="M259.3,82.86a15.23,15.23,0,0,1,6.67,4,13.84,13.84,0,0,1-3.6-1.57A13.65,13.65,0,0,1,259.3,82.86Z" style="fill:#263238"></path><path d="M253,104.4a15.35,15.35,0,0,1,7.77.12,15.35,15.35,0,0,1-7.77-.12Z" style="fill:#263238"></path><path d="M258.34,126.21a13.52,13.52,0,0,1,3.15-2.33,13.32,13.32,0,0,1,3.64-1.45,15.5,15.5,0,0,1-6.79,3.78Z" style="fill:#263238"></path><path d="M333.42,127.87a15.48,15.48,0,0,1-6.67-4,15.23,15.23,0,0,1,6.67,4Z" style="fill:#263238"></path><path d="M339.71,106.32a14,14,0,0,1-3.9.44,13.28,13.28,0,0,1-3.87-.56,13.6,13.6,0,0,1,3.89-.44A14.06,14.06,0,0,1,339.71,106.32Z" style="fill:#263238"></path><path d="M334.38,84.52a13.77,13.77,0,0,1-3.15,2.32,13.47,13.47,0,0,1-3.64,1.46A13.52,13.52,0,0,1,330.74,86,13.78,13.78,0,0,1,334.38,84.52Z" style="fill:#263238"></path><path d="M318.86,68.3a15.23,15.23,0,0,1-4,6.67,13.78,13.78,0,0,1,1.57-3.59A13.93,13.93,0,0,1,318.86,68.3Z" style="fill:#263238"></path></g></svg>